<svg width="801" height="158" viewBox="0 0 801 158" fill="none" xmlns="http://www.w3.org/2000/svg">
  <g clip-path="url(#clip0_866:2)">
    <path d="M220.915 81.3444L228.591 73.6673H212.869V55.0032H204.567V113.937C204.567 122.356 209.411 129.161 219.099 129.161H224.98V122.011H220.597C215.292 122.011 212.869 118.896 212.869 113.706V81.3444H220.915ZM650.849 111.358V46.9939H636.1V112.267C636.1 120.663 641.205 129.173 653.345 129.173H661.74V116.691H656.068C652.324 116.691 650.849 114.877 650.849 111.358ZM784.571 70.06L775.039 106.594L762.899 70.06H752.121L740.093 106.594L730.564 70.06H714.905L733.059 129.173H745.199L757.565 92.0715L769.933 129.173H782.073L800.113 70.06H784.571ZM696.733 113.968C695.032 115.67 692.761 116.578 689.812 116.578C686.861 116.578 684.705 115.67 683.004 113.968C679.94 110.906 679.6 105.686 679.6 99.56C679.6 93.4319 679.94 88.3261 683.004 85.2641C684.705 83.5621 686.861 82.6543 689.812 82.6543C692.761 82.6543 695.032 83.5621 696.733 85.2641C699.796 88.3261 700.137 93.4319 700.137 99.56C700.137 105.686 699.796 110.906 696.733 113.968V113.968ZM689.812 69.3793C681.075 69.3793 675.176 72.7824 671.545 76.6403C666.212 82.2001 664.851 88.8949 664.851 99.56C664.851 110.338 666.212 117.032 671.545 122.592C675.176 126.45 681.075 129.853 689.812 129.853C698.548 129.853 704.561 126.45 708.192 122.592C713.525 117.032 714.887 110.338 714.887 99.56C714.887 88.8949 713.525 82.2001 708.192 76.6403C704.561 72.7824 698.548 69.3793 689.812 69.3793ZM603.444 63.898V129.112H618.195V82.5053H629.087V71.2736H618.195V64.8059C618.195 61.4021 619.896 59.4736 623.412 59.4736H629.087V46.9939H620.689C608.663 46.9939 603.444 55.5027 603.444 63.898V63.898ZM570.051 75.7324V70.06H555.641V129.173H570.391V93.5464C570.391 86.0579 575.384 82.6543 579.923 82.6543C583.553 82.6543 585.435 83.8611 587.705 86.1297L598.869 74.9387C594.785 70.8538 590.7 69.3793 584.913 69.3793C578.56 69.3793 572.887 72.3288 570.051 75.7324V75.7324ZM511.307 94.1131C511.419 91.5027 511.76 89.9157 512.668 87.7595C514.256 84.2417 517.547 81.6335 522.539 81.6335C527.531 81.6335 530.821 84.2417 532.409 87.7595C533.317 89.9157 533.657 91.5027 533.772 94.1131H511.307ZM522.539 69.3793C507.221 69.3793 496.784 80.2709 496.784 99.56C496.784 123.5 510.171 129.853 524.127 129.853C534.792 129.853 540.579 126.563 546.592 120.549L537.629 111.813C533.884 115.557 530.708 117.372 524.24 117.372C515.957 117.372 511.307 111.813 511.307 104.212H548.295V97.6313C548.295 81.4064 538.989 69.3793 522.539 69.3793V69.3793ZM481.903 70.06L469.989 106.594L457.963 70.06H442.419L464.203 129.173H475.776L497.447 70.06H481.903ZM424.473 113.968C422.772 115.67 420.501 116.578 417.552 116.578C414.603 116.578 412.447 115.67 410.744 113.968C407.68 110.906 407.34 105.686 407.34 99.56C407.34 93.4319 407.68 88.3261 410.744 85.2641C412.447 83.5621 414.603 82.6543 417.552 82.6543C420.501 82.6543 422.772 83.5621 424.473 85.2641C427.536 88.3261 427.877 93.4319 427.877 99.56C427.877 105.686 427.536 110.906 424.473 113.968V113.968ZM417.552 69.3793C408.816 69.3793 402.916 72.7824 399.285 76.6403C393.953 82.2001 392.591 88.8949 392.591 99.56C392.591 110.338 393.953 117.032 399.285 122.592C402.916 126.45 408.816 129.853 417.552 129.853C426.288 129.853 432.301 126.45 435.932 122.592C441.265 117.032 442.627 110.338 442.627 99.56C442.627 88.8949 441.265 82.2001 435.932 76.6403C432.301 72.7824 426.288 69.3793 417.552 69.3793ZM378.539 72.334H368.187L342.457 97.3819L342.497 47.0444H334.193V129.161H342.497L342.457 108.451L352.531 98.3423L371.563 129.161H381.825L358.283 92.5903L378.539 72.334ZM307.419 79.1079C312.839 79.1079 316.184 80.7215 320.451 85.4496C320.451 85.4496 326.011 80.0464 325.964 79.9975C320.143 73.7693 315.2 71.7261 307.419 71.7261C293.117 71.7261 282.276 81.4136 282.276 100.79C282.276 120.164 293.117 129.853 307.419 129.853C315.261 129.853 320.22 127.776 326.101 121.435L320.451 116.014C316.184 120.742 312.839 122.472 307.419 122.472C301.883 122.472 297.269 120.281 294.271 116.014C291.617 112.324 290.58 107.94 290.58 100.79C290.58 93.6397 291.617 89.2564 294.271 85.5657C297.269 81.2975 301.883 79.1079 307.419 79.1079V79.1079ZM266.592 109.092C266.592 113.823 265.668 117.052 263.708 118.896C260.132 122.356 255.865 122.703 251.021 122.703C242.025 122.703 237.989 119.589 237.989 113.014C237.989 106.441 242.141 102.981 250.676 102.981H266.592V109.092ZM252.176 71.7261C243.072 71.7261 237.337 73.522 232.312 79.884C232.243 79.9704 237.759 85.3349 237.759 85.3349C241.104 80.6069 244.795 78.8767 252.06 78.8767C262.44 78.8767 266.592 83.0293 266.592 91.3319V96.7521H249.523C236.836 96.7521 229.916 103.212 229.916 113.13C229.916 117.628 231.416 121.894 234.183 124.664C237.759 128.354 242.372 129.853 250.215 129.853C257.827 129.853 261.977 128.354 266.592 123.741V129.161H274.895V90.6397C274.895 78.2991 267.399 71.7261 252.176 71.7261V71.7261ZM181.165 97.2136L172.053 96.4069C164.904 95.8308 162.136 92.9469 162.136 88.1027C162.136 82.3365 166.517 78.7611 174.823 78.7611C180.704 78.7611 185.895 80.1455 189.929 83.2579L195.352 77.8376C190.276 73.6871 183.011 71.7261 174.937 71.7261C162.827 71.7261 154.063 77.9537 154.063 88.3335C154.063 97.6756 159.944 102.635 171.016 103.557L180.359 104.364C186.932 104.942 189.816 107.709 189.816 112.669C189.816 119.357 184.049 122.703 174.707 122.703C167.672 122.703 161.559 120.857 157.06 116.129L151.525 121.665C157.753 127.662 165.249 129.853 174.823 129.853C188.547 129.853 197.888 123.509 197.888 112.554C197.888 101.942 191.084 98.1371 181.165 97.2136" fill="white"/>
    <path d="M112.096 143.136V101.068H126.118V157.16H0V101.068H14.0219V143.136H112.096" fill="white"/>
    <path d="M28.0593 129.112H98.1688V115.09H28.0593V129.112ZM90.8948 0.00133826L79.6437 8.36932L121.486 64.6245L132.737 56.2564L90.8948 0.00133826ZM56.1172 33.1668L109.99 78.034L118.964 67.2589L65.0907 22.392L56.1172 33.1668ZM38.5297 64.3464L102.085 93.9455L108.005 81.2345L44.4495 51.6355L38.5297 64.3464ZM29.4516 97.1985L98.0625 111.618L100.946 97.896L32.3355 83.4761L29.4516 97.1985Z" fill="white"/>
  </g>
  <defs>
    <clipPath id="clip0_866:2">
      <rect width="800.12" height="157.16" fill="white"/>
    </clipPath>
  </defs>
</svg>
